REM DIRINDEX 1\2,1\3\7,1\3\8,1\4\9,1\4\10,1\4\11,1\5\12,1\5\13,1\5\14,1\6\15,1\6\16,1\6\17
REM DIRNAME "folder01","folder02","folder03","folder04","folder05","folder06","folder07","folder08","folder09","folder10","folder11","folder12","folder13","folder14","folder15","folder16","folder17"
TITLE ""
FILE "2Q_t_0018-0035.mp3" MP3
  TRACK 01 AUDIO
    TITLE "7:cjc174_1764"
    INDEX 01 00:00:00
  TRACK 02 AUDIO
    TITLE "0:"
    INDEX 01 00:01:04
  TRACK 03 AUDIO
    TITLE "8:cjc174_1765"
    INDEX 01 00:01:49
  TRACK 04 AUDIO
    TITLE "0:"
    INDEX 01 00:05:53
  TRACK 05 AUDIO
    TITLE "7:cjc174_1766"
    INDEX 01 00:06:23
  TRACK 06 AUDIO
    TITLE "0:"
    INDEX 01 00:07:38
  TRACK 07 AUDIO
    TITLE "8:cjc174_1767"
    INDEX 01 00:08:08
  TRACK 08 AUDIO
    TITLE "0:"
    INDEX 01 00:09:45
  TRACK 09 AUDIO
    TITLE "7:cjc174_1768"
    INDEX 01 00:10:13
  TRACK 10 AUDIO
    TITLE "0:"
    INDEX 01 00:11:20
  TRACK 11 AUDIO
    TITLE "8:cjc174_1769"
    INDEX 01 00:11:65
  TRACK 12 AUDIO
    TITLE "0:"
    INDEX 01 00:13:21
  TRACK 13 AUDIO
    TITLE "7:cjc174_1770"
    INDEX 01 00:13:66
  TRACK 14 AUDIO
    TITLE "0:"
    INDEX 01 00:15:04
  TRACK 15 AUDIO
    TITLE "8:cjc174_1771"
    INDEX 01 00:15:53
  TRACK 16 AUDIO
    TITLE "0:"
    INDEX 01 00:17:05
  TRACK 17 AUDIO
    TITLE "7:cjc174_1772"
    INDEX 01 00:17:50
  TRACK 18 AUDIO
    TITLE "0:"
    INDEX 01 00:18:51
  TRACK 19 AUDIO
    TITLE "8:cjc174_1773"
    INDEX 01 00:19:25
  TRACK 20 AUDIO
    TITLE "0:"
    INDEX 01 00:22:12
  TRACK 21 AUDIO
    TITLE "7:cjc174_1774"
    INDEX 01 00:22:57
  TRACK 22 AUDIO
    TITLE "0:"
    INDEX 01 00:24:11
  TRACK 23 AUDIO
    TITLE "8:cjc174_1775"
    INDEX 01 00:24:58
  TRACK 24 AUDIO
    TITLE "0:"
    INDEX 01 00:27:74
  TRACK 25 AUDIO
    TITLE "7:cjc174_1776"
    INDEX 01 00:28:44
  TRACK 26 AUDIO
    TITLE "0:"
    INDEX 01 00:29:61
  TRACK 27 AUDIO
    TITLE "8:cjc174_1777"
    INDEX 01 00:30:31
  TRACK 28 AUDIO
    TITLE "0:"
    INDEX 01 00:32:24
  TRACK 29 AUDIO
    TITLE "7:cjc174_1778"
    INDEX 01 00:32:69
  TRACK 30 AUDIO
    TITLE "0:"
    INDEX 01 00:34:21
  TRACK 31 AUDIO
    TITLE "8:cjc174_1779"
    INDEX 01 00:34:66
  TRACK 32 AUDIO
    TITLE "0:"
    INDEX 01 00:37:70
  TRACK 33 AUDIO
    TITLE "7:cjc174_1780"
    INDEX 01 00:38:38
  TRACK 34 AUDIO
    TITLE "0:"
    INDEX 01 00:39:63
  TRACK 35 AUDIO
    TITLE "8:cjc174_1781"
    INDEX 01 00:40:35
  TRACK 36 AUDIO
    TITLE "0:"
    INDEX 01 00:41:74
  TRACK 37 AUDIO
    TITLE "7:cjc174_1782"
    INDEX 01 00:42:44
  TRACK 38 AUDIO
    TITLE "0:"
    INDEX 01 00:43:63
  TRACK 39 AUDIO
    TITLE "8:cjc174_1783"
    INDEX 01 00:44:33
  TRACK 40 AUDIO
    TITLE "0:"
    INDEX 01 00:45:66
  TRACK 41 AUDIO
    TITLE "7:cjc174_1784"
    INDEX 01 00:46:36
  TRACK 42 AUDIO
    TITLE "0:"
    INDEX 01 00:47:39
  TRACK 43 AUDIO
    TITLE "8:cjc174_1785"
    INDEX 01 00:48:11
  TRACK 44 AUDIO
    TITLE "0:"
    INDEX 01 00:50:67
  TRACK 45 AUDIO
    TITLE "7:cjc174_1786"
    INDEX 01 00:51:37
  TRACK 46 AUDIO
    TITLE "0:"
    INDEX 01 00:52:42
  TRACK 47 AUDIO
    TITLE "8:cjc174_1787"
    INDEX 01 00:53:12
  TRACK 48 AUDIO
    TITLE "0:"
    INDEX 01 00:58:33
  TRACK 49 AUDIO
    TITLE "7:cjc174_1788"
    INDEX 01 00:59:03
  TRACK 50 AUDIO
    TITLE "0:"
    INDEX 01 01:00:07
  TRACK 51 AUDIO
    TITLE "8:cjc174_1789"
    INDEX 01 01:00:54
  TRACK 52 AUDIO
    TITLE "0:"
    INDEX 01 01:05:51
  TRACK 53 AUDIO
    TITLE "7:cjc174_1790"
    INDEX 01 01:06:21
  TRACK 54 AUDIO
    TITLE "0:"
    INDEX 01 01:07:40
  TRACK 55 AUDIO
    TITLE "8:cjc174_1791"
    INDEX 01 01:08:12
  TRACK 56 AUDIO
    TITLE "0:"
    INDEX 01 01:11:63
  TRACK 57 AUDIO
    TITLE "7:cjc174_1792"
    INDEX 01 01:12:31
  TRACK 58 AUDIO
    TITLE "0:"
    INDEX 01 01:13:64
  TRACK 59 AUDIO
    TITLE "8:cjc174_1793"
    INDEX 01 01:14:34
  TRACK 60 AUDIO
    TITLE "0:"
    INDEX 01 01:17:27
  TRACK 61 AUDIO
    TITLE "7:cjc174_1794"
    INDEX 01 01:17:72
  TRACK 62 AUDIO
    TITLE "0:"
    INDEX 01 01:19:12
  TRACK 63 AUDIO
    TITLE "8:cjc174_1795"
    INDEX 01 01:19:59
  TRACK 64 AUDIO
    TITLE "0:"
    INDEX 01 01:22:43
  TRACK 65 AUDIO
    TITLE "7:cjc174_1796"
    INDEX 01 01:23:12
  TRACK 66 AUDIO
    TITLE "0:"
    INDEX 01 01:24:27
  TRACK 67 AUDIO
    TITLE "8:cjc174_1797"
    INDEX 01 01:24:72
  TRACK 68 AUDIO
    TITLE "0:"
    INDEX 01 01:28:44
  TRACK 69 AUDIO
    TITLE "7:cjc174_1798"
    INDEX 01 01:29:14
  TRACK 70 AUDIO
    TITLE "0:"
    INDEX 01 01:30:18
  TRACK 71 AUDIO
    TITLE "8:cjc174_1799"
    INDEX 01 01:30:66
  TRACK 72 AUDIO
    TITLE "0:"
    INDEX 01 01:33:43
